<?xml version="1.0" encoding="UTF-8"?><svg version="1.1" id="Layer_1" xmlns="http://www.w3.org/2000/svg" xmlns:xlink="http://www.w3.org/1999/xlink" x="0px" y="0px" width="800px" height="297.1px" viewBox="0 0 800 297.1" enable-background="new 0 0 800 297.1" xml:space="preserve">
<path fill="#F3F4F6" d="M710.4,61.1c-2.4,0-4,0-5.6-1.4c-6.4-6.9-22.5-13.7-49.8-16.2c-3.5-0.3-6.6-0.5-9.2-0.5
	c-10.4,0-13.7,1.7-14.9,2.9c-1.6,1.5-4,2.4-7.2,2.4l-20.1,1.5c-4.8,0.5-9.1,3.3-9.1,6.2c0,1.7,0,3-2,3c-4,0-8.3-1.7-17-8.7
	C561,39.2,553,36,545.5,36c-5.7,0.1-11.3,2.2-18.3,3.5c-5.6,1.2-9,1.6-11.7,1.5c-5.1-0.1-6.7-1.5-6.7-1.5s-8-8.8-17.7-9.8
	c-9.6-1-33.8-15.7-70.7-24C409.7,3.2,399.9,2,391.6,2c-21,0-33.8,5.2-33.8,5.2L331.3,17c-2.4,1-3.6,1-6.6,1c-3.4,0-9-3-17.5-3h-54.7
	c-0.8,0-1.6,0-2.4,0c0,0-85.4-15-100.5-15c-5.4,0-82,18-82,18H0v278.653h800V61h-89.6V61.1z"/>
<path fill="#EBEBEE" d="M711.4,69.1c-23.8,0-25.3,8-50,8c-27.1,0-45.3,4-70,4c0,0-63.6-18.5-78-20.9c-17.4-2.8-37.5-4.2-51-4.1
	c-5.2,0-9.2,0.4-11.5,1.1c-10.8,3.7-27.3,3.9-44.5,3.9c-14.6,0-28.1,1-40,1c-14.8,0-27.1-0.9-35.8-5.5
	c-19.3-10.8-77.6-23.5-97.2-23.5c-18.4,0-53,4.1-77,7.2c-15,1.9-26.5,3.8-33,3.8s-14.8-6-28-6s-29,8.6-29,8.6L0,49v238.1h800V73
	L711.4,69.1z"/>
<path fill="#E4E4E8" d="M711.4,101.1L800,104v193.1H0V89l67.4-5.1c0,0,103.6-10.7,170-10.7s127,26.9,191.6,26.9
	s114.3,10.6,172.1,1.7c16.1-2.4,31.5-3.8,46.3-3.7C671.8,98.3,694,101.1,711.4,101.1z"/>
</svg>